<?xml version="1.0" encoding="UTF-8"?>
<svg id="Capa_2" data-name="Capa 2" xmlns="http://www.w3.org/2000/svg" viewBox="0 0 636.1 666.02">
  <g id="Capa_1-2" data-name="Capa 1-2">
    <g>
      <path d="M362.53,101.25l-3.15-6.31c-.05-.1-.1-.21-.16-.32-.26-.51-.52-1.02-.8-1.53-.08-.15-.16-.31-.26-.46-.22-.41-.45-.81-.68-1.21-.16-.3-.32-.58-.48-.84-.32-.53-.64-1.04-.97-1.55l-.09-.16c-.32-.48-.64-.96-.95-1.4-.31-.45-.62-.9-.94-1.34-.31-.44-.64-.87-.97-1.31-.65-.86-1.32-1.71-2.02-2.53-.03-.03-.06-.07-.09-.1.03.03.06.07.08.1h-8.17c2.65,2.61,5.05,5.47,7.18,8.6.27.38.54.78.79,1.17.02.04.04.07.06.09l.06.1c.31.48.61.96.92,1.47.11.18.21.36.3.54l.09.15c.22.38.44.76.65,1.15l.17.32c.28.51.55,1.02.81,1.54l1.92,3.83,4.47,8.95c2.61.67,5.2,1.39,7.78,2.15,0,0-5.55-11.1-5.55-11.1ZM362.53,101.25l-3.15-6.31c-.05-.1-.1-.21-.16-.32-.26-.51-.52-1.02-.8-1.53-.08-.15-.16-.31-.26-.46-.22-.41-.45-.81-.68-1.21-.16-.3-.32-.58-.48-.84-.32-.53-.64-1.04-.97-1.55l-.09-.16c-.32-.48-.64-.96-.95-1.4-.31-.45-.62-.9-.94-1.34-.31-.44-.64-.87-.97-1.31-.65-.86-1.32-1.71-2.02-2.53-.03-.03-.06-.07-.09-.1-.03-.04-.06-.08-.11-.12-.35-.42-.71-.83-1.08-1.24-.07-.09-.15-.17-.23-.26-.4-.44-.8-.87-1.21-1.29-.14-.14-.28-.29-.42-.43-.26-.27-.53-.54-.8-.8-.1-.11-.21-.22-.33-.32-.44-.43-.89-.85-1.34-1.27h-9.59c2.51,1.75,4.85,3.7,7.02,5.83,2.65,2.61,5.05,5.47,7.18,8.6.27.38.54.78.79,1.17.02.04.04.07.06.09l.06.1c.31.48.61.96.92,1.47.11.18.21.36.3.54l.09.15c.22.38.44.76.65,1.15l.17.32c.28.51.55,1.02.81,1.54l1.92,3.83,4.47,8.95c2.61.67,5.2,1.39,7.78,2.15l-5.55-11.1h0ZM362.53,101.25l-3.15-6.31c-.05-.1-.1-.21-.16-.32-.26-.51-.52-1.02-.8-1.53-.08-.15-.16-.31-.26-.46-.22-.41-.45-.81-.68-1.21-.16-.3-.32-.58-.48-.84-.32-.53-.64-1.04-.97-1.55l-.09-.16c-.32-.48-.64-.96-.95-1.4-.31-.45-.62-.9-.94-1.34-.31-.44-.64-.87-.97-1.31-.65-.86-1.32-1.71-2.02-2.53-.03-.03-.06-.07-.09-.1-.03-.04-.06-.08-.11-.12-.35-.42-.71-.83-1.08-1.24-.07-.09-.15-.17-.23-.26-.4-.44-.8-.87-1.21-1.29-.14-.14-.28-.29-.42-.43-.26-.27-.53-.54-.8-.8-.1-.11-.21-.22-.33-.32-.44-.43-.89-.85-1.34-1.27h-9.59c2.51,1.75,4.85,3.7,7.02,5.83,2.65,2.61,5.05,5.47,7.18,8.6.27.38.54.78.79,1.17.02.04.04.07.06.09l.06.1c.31.48.61.96.92,1.47.11.18.21.36.3.54l.09.15c.22.38.44.76.65,1.15l.17.32c.28.51.55,1.02.81,1.54l1.92,3.83,4.47,8.95c2.61.67,5.2,1.39,7.78,2.15l-5.55-11.1h0ZM551.4,659.81h-3.57c-1.59.13-3.19.2-4.8.2s-3.19-.07-4.76-.2c-14.82-1.21-28.32-8.05-37.94-18.96-3.25-3.68-6.06-7.82-8.34-12.36l-7.93-15.86-2.71-5.41c-1.68,1.1-3.37,2.18-5.07,3.24-14.58,9.11-29.9,17.07-45.89,23.84-5.54,2.34-11.13,4.53-16.77,6.55-31.73,11.42-64.84,17.78-98.79,18.96-3.9.14-7.82.21-11.74.21h-80.06c-1.6-.01-3.18-.08-4.74-.21-15-1.24-28.38-8.32-37.85-18.96-8.95-10.07-14.4-23.33-14.4-37.84v-78.63l-6,12-46.06,92.11c-2.27,4.54-5.08,8.68-8.34,12.36-8.14,9.23-19.06,15.55-31.21,18.01-3.72.76-7.57,1.15-11.48,1.15-1.46,0-2.9-.05-4.34-.17-7.33-.55-14.41-2.51-21.1-5.85-28.1-14.06-39.54-48.36-25.49-76.47L201.3,198.97l2.92-5.84,9.48-18.96,36.46-72.92,1.87-3.75.09-.19c.25-.49.5-.96.76-1.44l.17-.31c.2-.39.42-.77.65-1.15l.08-.15c.09-.16.18-.32.28-.48l.17-.29c.13-.21.25-.42.39-.62l.06-.09c.18-.29.36-.58.55-.88.48-.74.92-1.39,1.41-2.06.28-.41.58-.81.9-1.23.97-1.28,1.98-2.5,3.02-3.66.25-.29.52-.58.78-.86.44-.47.9-.95,1.38-1.43.12-.12.25-.25.38-.36,1.4-1.39,2.89-2.7,4.46-3.93.4-.33.8-.63,1.22-.95.41-.31.85-.63,1.32-.96.24-.16.49-.33.75-.51.38-.27.78-.54,1.18-.79.05-.03.11-.07.18-.11.48-.31.96-.61,1.48-.93.17-.11.35-.21.53-.3l.15-.08c.38-.23.76-.45,1.15-.66l.33-.17c.5-.28,1.01-.54,1.53-.81l.45-.21c.35-.18.71-.35,1.11-.54.46-.22.94-.43,1.43-.64,1.08-.47,2.18-.91,3.27-1.31.13-.04.26-.08.42-.14.55-.2,1.1-.38,1.65-.55.02-.01.04-.01.05-.02l.12-.04c.57-.18,1.16-.36,1.76-.52.62-.17,1.24-.34,1.89-.5,2.53-.61,5.1-1.05,7.65-1.32.56-.05,1.12-.11,1.69-.15l.75-.04c2.12-.14,4.34-.16,7.04.01l.45.03c.56.04,1.13.1,1.68.15,2.55.27,5.13.71,7.67,1.33.63.15,1.26.32,1.9.5.58.15,1.16.33,1.74.51l.44.15h.01c.46.15.92.3,1.42.48l.28.09c1.12.41,2.25.86,3.37,1.34.48.21.96.43,1.46.66.35.17.71.34,1.07.52l.56.27c.48.25.95.49,1.42.75l.32.18c.39.2.77.42,1.15.65l.15.08c.18.09.36.19.57.32.47.29.92.57,1.38.86.08.06.19.13.31.2.37.24.75.5,1.16.78.23.16.46.32.69.48,2.51,1.75,4.85,3.7,7.02,5.83,2.65,2.61,5.05,5.47,7.18,8.6.27.38.54.78.79,1.17.02.04.04.07.06.09l.06.1c.31.48.61.96.92,1.47.11.18.21.36.3.54l.09.15c.22.38.44.76.65,1.15l.17.32c.28.51.55,1.02.81,1.54l1.92,3.83,4.47,8.95c2.61.67,5.2,1.39,7.78,2.15l-5.55-11.1-3.15-6.31c-.05-.1-.1-.21-.16-.32-.26-.51-.52-1.02-.8-1.53-.08-.15-.16-.31-.26-.46-.22-.41-.45-.81-.68-1.21-.16-.3-.32-.58-.48-.84-.32-.53-.64-1.04-.97-1.55l-.09-.16c-.32-.48-.64-.96-.95-1.4-.31-.45-.62-.9-.94-1.34-.31-.44-.64-.87-.97-1.31-.65-.86-1.32-1.71-2.02-2.53-.03-.03-.06-.07-.09-.1-.03-.04-.06-.08-.11-.12-.35-.42-.71-.83-1.08-1.24-.07-.09-.15-.17-.23-.26-.4-.44-.8-.87-1.21-1.29-.14-.14-.28-.29-.42-.43-.26-.27-.53-.54-.8-.8-.1-.11-.21-.22-.33-.32-.44-.43-.89-.85-1.34-1.27-.72-.65-1.46-1.29-2.21-1.91-.47-.39-.94-.77-1.42-1.14-.47-.37-.96-.74-1.45-1.09-.27-.21-.55-.41-.83-.6-.32-.23-.64-.45-.96-.67-.47-.34-.96-.66-1.44-.97l-.25-.16h-.02c-.47-.31-.95-.61-1.4-.88-.28-.18-.57-.35-.87-.5-.42-.25-.83-.49-1.26-.71-.13-.08-.26-.15-.38-.21-.55-.3-1.09-.58-1.65-.87l-.27-.13c-.08-.04-.17-.08-.25-.12-.4-.2-.8-.39-1.18-.57-.53-.25-1.07-.49-1.61-.72-1.22-.54-2.47-1.03-3.78-1.51l-.3-.1c-.57-.2-1.14-.39-1.73-.58-.14-.05-.28-.09-.42-.13-.61-.19-1.23-.38-1.83-.54-.69-.19-1.38-.38-2.08-.55-2.79-.67-5.64-1.16-8.46-1.46-.62-.06-1.26-.12-1.89-.16l-.47-.03c-2.83-.18-5.33-.18-7.8-.02l-.77.05c-.64.04-1.27.1-1.9.16-2.82.3-5.66.79-8.45,1.46-.7.17-1.4.36-2.06.54-.67.18-1.33.38-1.98.59-.02,0-.05.02-.07.02l-.1.03c-.62.2-1.24.4-1.8.6l-.42.15c-1.24.45-2.49.94-3.71,1.48-.55.23-1.1.48-1.6.72-.39.18-.79.36-1.18.56-.2.09-.4.19-.6.29-.52.27-1.03.54-1.54.82-.16.07-.32.16-.47.25-.41.22-.81.45-1.21.69-.3.15-.59.32-.84.48-.53.32-1.05.64-1.49.92l-.21.14c-.49.31-.97.63-1.39.93-.81.54-1.58,1.09-2.28,1.62-.47.35-.93.71-1.35,1.05-.45.35-.89.71-1.33,1.08-.67.55-1.32,1.12-1.96,1.7-.7.64-1.39,1.29-2.05,1.96-.52.52-1.02,1.04-1.52,1.57-.32.34-.63.68-.89.98-.39.43-.77.88-1.15,1.33-.46.53-.9,1.07-1.34,1.63-.27.34-.54.68-.8,1.03-.38.49-.74.98-1.03,1.41-.51.7-1.02,1.45-1.56,2.28-.2.32-.4.63-.6.94-.16.25-.32.52-.48.78l-.23.37c-.13.22-.26.45-.38.67-.25.42-.48.84-.71,1.26-.08.14-.15.27-.21.4-.29.51-.56,1.03-.85,1.6l-.09.19-3.19,6.39-45.94,91.88-2.92,5.84-11.55,23.09-17,34v-86.41l-5,4.48s-.03.02-.04.04c-6.63,5.94-12.86,12.27-18.67,18.96-1.67,1.92-3.3,3.87-4.89,5.84-9.09,11.25-17.03,23.44-23.76,36.46-14.42,27.93-48.87,38.91-76.8,24.49-27.93-14.43-38.91-48.88-24.49-76.8,4.46-8.64,9.3-17.06,14.49-25.23,1.36-2.15,2.74-4.28,4.16-6.39,6.02-9.01,12.47-17.71,19.34-26.06,5.83-7.09,11.95-13.93,18.36-20.5,7.73-7.95,15.87-15.51,24.39-22.64,2.36-1.99,4.76-3.94,7.18-5.84,9.66-7.66,19.76-14.77,30.28-21.31,22.96-14.27,47.66-25.66,73.51-33.86,1.35-.48,2.74-.91,4.21-1.31,30.7-9.28,62.58-13.98,94.78-13.98,44.12,0,86.95,8.65,127.3,25.72,27.23,11.52,52.52,26.51,75.52,44.74,2.41,1.91,4.79,3.85,7.15,5.83,7.15,5.99,14.06,12.31,20.72,18.96.18.17.36.35.54.53,17.66,17.66,33.09,37.04,46.15,57.93,3.53,5.64,6.89,11.39,10.06,17.24.98,1.79,1.93,3.59,2.86,5.4l1.32-1.32c1.06-1.06,2.08-2.16,3.05-3.28-.97-1.86-1.97-3.71-2.99-5.55-3.4-6.17-6.99-12.22-10.77-18.15-12.04-18.88-26.01-36.54-41.79-52.8-1.21-1.25-2.42-2.48-3.65-3.71-5.28-5.28-10.71-10.37-16.29-15.25-2.25-1.98-4.53-3.92-6.83-5.83-24.96-20.71-52.67-37.56-82.71-50.26C391.64,8.81,348.02,0,303.09,0c-32.78,0-65.26,4.79-96.42,14.21-1.53.42-3.07.89-4.48,1.39-26.23,8.33-51.39,19.92-74.77,34.46-12.84,7.99-25.09,16.81-36.66,26.4-2.32,1.91-4.6,3.86-6.86,5.85-20.52,17.94-38.78,38.33-54.34,60.72-1.65,2.35-3.25,4.73-4.83,7.12-6.4,9.73-12.3,19.81-17.67,30.21-7.72,14.95-9.16,32.02-4.05,48.05,5.12,16.03,16.16,29.12,31.12,36.84,30.86,15.94,68.94,3.8,84.88-27.07,7.31-14.13,16.08-27.25,26.22-39.21,1.67-1.98,3.38-3.93,5.14-5.84,3.1-3.4,6.33-6.7,9.67-9.9v84.83L6.65,574.83c-15.53,31.08-2.89,68.99,28.18,84.52,8.84,4.42,18.3,6.66,28.12,6.66,4.08,0,8.09-.38,11.98-1.14,5.39-1.01,10.56-2.73,15.42-5.06,9.02-4.33,16.93-10.79,23.03-18.96,2.25-3,4.25-6.24,5.97-9.68l40.69-81.38v53.22c0,14.18,4.71,27.3,12.66,37.84,6.05,8.03,13.97,14.57,23.11,18.96,6.33,3.05,13.24,5.07,20.53,5.84,2.2.24,4.43.36,6.69.36h80.06c5.31.01,10.59-.11,15.86-.36,16.39-.76,32.58-2.71,48.52-5.84,21.44-4.2,42.42-10.53,62.78-18.96.83-.34,1.65-.68,2.48-1.03,16.1-6.81,31.54-14.81,46.25-23.96l7.65,15.31c1.72,3.44,3.72,6.68,5.97,9.68,6.1,8.17,14.01,14.63,23.03,18.96,6.4,3.07,13.36,5.07,20.63,5.84,2.23.24,4.49.36,6.77.36s4.48-.12,6.69-.36c2.61-.27,5.19-.71,7.73-1.31,4.7-1.11,9.27-2.78,13.7-4.99,9.74-4.87,17.87-12,23.83-20.76-10.16,12.91-25.92,21.22-43.58,21.22ZM362.53,101.25l-3.15-6.31c-.05-.1-.1-.21-.16-.32-.26-.51-.52-1.02-.8-1.53-.08-.15-.16-.31-.26-.46-.22-.41-.45-.81-.68-1.21-.16-.3-.32-.58-.48-.84-.32-.53-.64-1.04-.97-1.55l-.09-.16c-.32-.48-.64-.96-.95-1.4-.31-.45-.62-.9-.94-1.34-.31-.44-.64-.87-.97-1.31-.65-.86-1.32-1.71-2.02-2.53-.03-.03-.06-.07-.09-.1-.03-.04-.06-.08-.11-.12-.35-.42-.71-.83-1.08-1.24-.07-.09-.15-.17-.23-.26-.4-.44-.8-.87-1.21-1.29-.14-.14-.28-.29-.42-.43-.26-.27-.53-.54-.8-.8-.1-.11-.21-.22-.33-.32-.44-.43-.89-.85-1.34-1.27h-9.59c2.51,1.75,4.85,3.7,7.02,5.83,2.65,2.61,5.05,5.47,7.18,8.6.27.38.54.78.79,1.17.02.04.04.07.06.09l.06.1c.31.48.61.96.92,1.47.11.18.21.36.3.54l.09.15c.22.38.44.76.65,1.15l.17.32c.28.51.55,1.02.81,1.54l1.92,3.83,4.47,8.95c2.61.67,5.2,1.39,7.78,2.15l-5.55-11.1h0ZM362.53,101.25l-3.15-6.31c-.05-.1-.1-.21-.16-.32-.26-.51-.52-1.02-.8-1.53-.08-.15-.16-.31-.26-.46-.22-.41-.45-.81-.68-1.21-.16-.3-.32-.58-.48-.84-.32-.53-.64-1.04-.97-1.55l-.09-.16c-.32-.48-.64-.96-.95-1.4-.31-.45-.62-.9-.94-1.34-.31-.44-.64-.87-.97-1.31-.65-.86-1.32-1.71-2.02-2.53-.03-.03-.06-.07-.09-.1-.03-.04-.06-.08-.11-.12-.35-.42-.71-.83-1.08-1.24-.07-.09-.15-.17-.23-.26-.4-.44-.8-.87-1.21-1.29-.14-.14-.28-.29-.42-.43-.26-.27-.53-.54-.8-.8-.1-.11-.21-.22-.33-.32-.44-.43-.89-.85-1.34-1.27h-9.59c2.51,1.75,4.85,3.7,7.02,5.83,2.65,2.61,5.05,5.47,7.18,8.6.27.38.54.78.79,1.17.02.04.04.07.06.09l.06.1c.31.48.61.96.92,1.47.11.18.21.36.3.54l.09.15c.22.38.44.76.65,1.15l.17.32c.28.51.55,1.02.81,1.54l1.92,3.83,4.47,8.95c2.61.67,5.2,1.39,7.78,2.15l-5.55-11.1h0ZM362.53,101.25l-3.15-6.31c-.05-.1-.1-.21-.16-.32-.26-.51-.52-1.02-.8-1.53-.08-.15-.16-.31-.26-.46-.22-.41-.45-.81-.68-1.21-.16-.3-.32-.58-.48-.84-.32-.53-.64-1.04-.97-1.55l-.09-.16c-.32-.48-.64-.96-.95-1.4-.31-.45-.62-.9-.94-1.34-.31-.44-.64-.87-.97-1.31-.65-.86-1.32-1.71-2.02-2.53-.03-.03-.06-.07-.09-.1-.03-.04-.06-.08-.11-.12-.35-.42-.71-.83-1.08-1.24-.07-.09-.15-.17-.23-.26-.4-.44-.8-.87-1.21-1.29-.14-.14-.28-.29-.42-.43-.26-.27-.53-.54-.8-.8-.1-.11-.21-.22-.33-.32-.44-.43-.89-.85-1.34-1.27h-9.59c2.51,1.75,4.85,3.7,7.02,5.83,2.65,2.61,5.05,5.47,7.18,8.6.27.38.54.78.79,1.17.02.04.04.07.06.09l.06.1c.31.48.61.96.92,1.47.11.18.21.36.3.54l.09.15c.22.38.44.76.65,1.15l.17.32c.28.51.55,1.02.81,1.54l1.92,3.83,4.47,8.95c2.61.67,5.2,1.39,7.78,2.15l-5.55-11.1h0Z"/>
      <path d="M609.9,462.65c-9.45,22.35-21.2,43.42-35.14,63.03l15.83,31.68,8.74,17.47c1.78,3.56,3.21,7.24,4.27,10.99,3.46,12.09,3.21,24.92-.86,37.11-1.87,5.61-4.47,10.84-7.71,15.6-.01.02-.03.04-.05.06-10.16,12.91-25.92,21.22-43.58,21.22h-3.57c7.16-.6,14.08-2.56,20.63-5.82,13.62-6.81,23.77-18.52,28.59-32.96s3.72-29.9-3.09-43.51l-8.34-16.69-5.18-10.36-9.66-19.32-3.01-6.02c1.33-1.84,2.65-3.69,3.94-5.55,12.88-18.5,23.8-38.31,32.67-59.27,17.07-40.35,25.72-83.18,25.72-127.3s-8.65-86.95-25.72-127.3c-3.37-7.96-7.03-15.75-10.99-23.36l1.32-1.32c1.06-1.06,2.08-2.16,3.05-3.28,4.4,8.34,8.45,16.88,12.14,25.62,17.39,41.09,26.2,84.71,26.2,129.64s-8.81,88.55-26.2,129.64h0Z"/>
      <path d="M613.1,333.01c0,41.83-8.2,82.44-24.38,120.68-7.17,16.97-15.78,33.15-25.74,48.43-1.25,1.93-2.53,3.85-3.84,5.75-2.55,3.73-5.18,7.41-7.9,11.03-1.04,1.39-2.1,2.76-3.16,4.13-.17.22-.34.44-.52.66-1.01,1.3-2.04,2.6-3.08,3.88-1.14,1.41-2.29,2.8-3.45,4.19-.12.15-.24.29-.37.43-.84,1.02-1.7,2.02-2.57,3.02-.03.05-.08.1-.13.15-.35.41-.7.82-1.05,1.22-.38.44-.76.88-1.16,1.31-1.55,1.77-3.13,3.52-4.74,5.25-.53.58-1.06,1.15-1.6,1.72-.07.09-.15.18-.26.27-.7.77-1.42,1.53-2.16,2.29-.49.52-.99,1.04-1.51,1.56.01.01,0,.02-.01.02-.06.07-.12.13-.19.19-.98,1.02-1.98,2.03-2.98,3.03-1.96,1.96-3.95,3.89-5.95,5.8-.76.72-1.52,1.43-2.28,2.14-2.85,2.65-5.75,5.24-8.68,7.78-7,6.04-14.24,11.74-21.71,17.1-3.28,2.36-6.61,4.65-9.98,6.88-1.67,1.11-3.36,2.2-5.06,3.27-14.23,8.99-29.21,16.83-44.87,23.45-2.39,1.01-4.79,1.99-7.2,2.94-.98.39-1.95.77-2.94,1.14-3.56,1.36-7.13,2.65-10.73,3.88-.65.22-1.3.44-1.95.65-.91.3-1.81.6-2.72.9-1.19.38-2.38.75-3.57,1.12-1.04.33-2.1.65-3.15.96-3.28.97-6.57,1.9-9.88,2.75-1.03.28-2.06.54-3.09.8-.37.1-.75.19-1.13.28-1.34.33-2.68.65-4.02.96-.06.02-.12.03-.18.04-1.55.36-3.1.71-4.66,1.04-1.04.23-2.09.45-3.14.66-.49.11-.99.21-1.49.3-.97.2-1.95.39-2.93.57-1.26.24-2.52.47-3.79.69-1.24.22-2.49.44-3.74.64-3.35.55-6.72,1.04-10.1,1.47-1.08.15-2.17.28-3.25.41-.04.01-.07.01-.11.01h-129.92c-.41-.14-.8-.28-1.2-.43-.17-.06-.33-.13-.49-.19-.41-.16-.81-.33-1.2-.5-.48-.21-.95-.42-1.41-.64-.02-.01-.04-.02-.07-.03-.44-.22-.87-.44-1.31-.67-1.16-.61-2.28-1.27-3.36-1.99l-.57-.39c-.99-.67-1.94-1.39-2.86-2.15-.25-.2-.49-.41-.73-.62-2.18-1.89-4.16-4-5.88-6.32-.17-.22-.34-.45-.5-.67-.29-.41-.57-.82-.85-1.24-.07-.11-.14-.22-.21-.33-.25-.38-.49-.76-.72-1.15-.19-.3-.37-.61-.54-.92-1.61-2.86-2.89-5.94-3.76-9.19-.07-.23-.13-.46-.18-.69-.44-1.72-.75-3.48-.95-5.28-.03-.21-.05-.42-.06-.64-.04-.29-.06-.59-.08-.89-.03-.37-.05-.74-.07-1.12v-.33c-.02-.48-.03-.97-.03-1.46v-45.37l80-80v26.8l-44.54,44.54h44.54v14.03h40.05c1.13.01,2.27,0,3.4-.02.6,0,1.2-.01,1.8-.03,1.02-.02,2.03-.05,3.05-.09.52,0,1.04-.03,1.56-.06,1.42-.06,2.84-.13,4.26-.22,1.25-.07,2.51-.16,3.75-.25.11-.01.22-.02.33-.03.84-.06,1.67-.13,2.51-.21.83-.07,1.67-.15,2.5-.24,4.54-.45,9.05-1.04,13.51-1.76.98-.16,1.94-.32,2.91-.49,1.22-.21,2.45-.43,3.67-.67.77-.14,1.54-.29,2.31-.45.86-.17,1.72-.35,2.58-.54.82-.17,1.64-.35,2.45-.54.82-.18,1.63-.36,2.44-.56.81-.19,1.61-.38,2.42-.59.67-.16,1.34-.33,2.01-.51.94-.23,1.88-.48,2.82-.74.8-.22,1.6-.44,2.4-.67.02,0,.04-.01.05-.01,1.19-.34,2.37-.68,3.55-1.04s2.36-.72,3.53-1.1c.85-.27,1.71-.55,2.56-.83.71-.23,1.43-.47,2.14-.73.74-.25,1.49-.51,2.23-.77.5-.18,1-.35,1.49-.54.31-.11.62-.22.93-.34.04-.01.08-.02.12-.05,4.37-1.6,8.67-3.34,12.92-5.2.44-.19.89-.39,1.33-.59,2.41-1.08,4.81-2.2,7.18-3.36.94-.46,1.88-.92,2.81-1.4.26-.13.52-.26.78-.39,1.21-.62,2.43-1.26,3.63-1.9.97-.52,1.93-1.04,2.89-1.57.39-.21.78-.43,1.17-.65,1.32-.74,2.64-1.5,3.95-2.27.89-.51,1.77-1.04,2.64-1.56.42-.26.84-.52,1.26-.78.32-.19.64-.38.96-.59.36-.21.71-.44,1.07-.67.39-.24.78-.48,1.17-.73.77-.49,1.53-.98,2.29-1.47,1.39-.91,2.77-1.83,4.14-2.77,1.67-1.13,3.33-2.3,4.96-3.48,3.3-2.39,6.54-4.86,9.71-7.41,25.86-20.85,47.13-47.18,62.03-77.2,2.28-4.6,4.41-9.28,6.39-14.05,1.03-2.48,2.02-4.98,2.96-7.5,9.37-25.03,14.49-52.12,14.49-80.38,0-1.18-.01-2.36-.03-3.54,0-.18,0-.36-.01-.54-.01-1.08-.04-2.15-.07-3.23-.01-.08-.01-.17-.01-.26-.03-.84-.06-1.68-.1-2.52-.03-.69-.06-1.37-.1-2.05-.04-.81-.08-1.61-.14-2.41-.04-.8-.1-1.61-.16-2.41-.17-2.4-.39-4.79-.64-7.17-.12-1.14-.24-2.28-.38-3.42-.02-.17-.04-.35-.07-.52-.07-.62-.15-1.23-.23-1.84-.08-.62-.16-1.24-.25-1.85-.25-1.83-.52-3.65-.82-5.46-.1-.63-.21-1.26-.32-1.89-.44-2.59-.93-5.17-1.47-7.74-.16-.79-.33-1.59-.51-2.38-.14-.68-.3-1.37-.46-2.05-.4-1.81-.84-3.6-1.3-5.4-.56-2.23-1.16-4.44-1.8-6.65-.65-2.27-1.33-4.53-2.06-6.78-.18-.59-.38-1.18-.58-1.77-.23-.72-.47-1.43-.72-2.15-.08-.26-.17-.52-.27-.79-.25-.75-.52-1.51-.79-2.26l60.94-60.94c1.24,2.48,2.44,4.99,3.61,7.51.29.62.58,1.25.87,1.88.04.09.09.19.13.29.37.79.72,1.59,1.07,2.39.36.81.71,1.61,1.07,2.42.41.95.82,1.9,1.22,2.85,16.18,38.24,24.38,78.85,24.38,120.68h-.01Z"/>
      <polygon points="263.04 330.39 263.04 477.64 183.04 557.64 183.04 490.38 245.73 365 245.74 364.99 253.98 348.5 253.99 348.49 263.04 330.39"/>
      <polygon points="263.04 504.44 263.04 548.98 218.5 548.98 263.04 504.44"/>
      <path d="M210.08,640.85h129.92c-1.52.19-3.04.35-4.57.51-1.25.13-2.51.25-3.76.36-3.81.35-7.63.63-11.46.84-.75.04-1.5.07-2.25.11-.06.01-.12.01-.18.01-.61.03-1.22.06-1.83.07-.17.02-.34.02-.52.02-.55.03-1.1.05-1.66.06-.04.01-.09.01-.14.01-.66.03-1.32.05-1.98.06-1.42.04-2.84.07-4.26.09-1.43.02-2.86.03-4.3.03h-80.05c-.28-.01-.57-.01-.85-.02-.28,0-.56,0-.84-.03-.2,0-.41-.01-.61-.03-.94-.05-1.87-.13-2.79-.25-.52-.07-1.04-.15-1.56-.24-.54-.09-1.08-.19-1.62-.3-.58-.12-1.15-.26-1.72-.4-.43-.12-.85-.23-1.27-.35-.07-.02-.13-.04-.19-.06-.46-.14-.92-.29-1.37-.44-.04-.01-.09-.03-.14-.05h0Z"/>
      <path d="M531.01,543.14c1.61-1.73,3.19-3.48,4.74-5.25-1.55,1.77-3.12,3.52-4.74,5.25Z"/>
      <path d="M580.75,194.99l-60.94,60.94c-.71-2.02-1.46-4.03-2.24-6.02-.29-.75-.58-1.5-.89-2.25-.28-.7-.56-1.4-.86-2.1-.12-.32-.26-.64-.39-.96-.25-.59-.5-1.18-.75-1.77-.15-.35-.3-.69-.45-1.04-.15-.34-.3-.69-.45-1.03-.23-.53-.46-1.05-.7-1.57-.29-.66-.59-1.31-.89-1.97-.91-1.98-1.85-3.96-2.82-5.91-.94-1.91-1.91-3.8-2.91-5.68-.4-.75-.8-1.5-1.21-2.25-.47-.87-.95-1.74-1.44-2.6-1.03-1.84-2.09-3.67-3.17-5.48-.44-.74-.89-1.47-1.34-2.2-.04-.07-.08-.13-.12-.2-.61-1-1.23-1.99-1.86-2.97-.28-.44-.56-.88-.85-1.32-.72-1.14-1.46-2.26-2.22-3.38-1.06-1.59-2.14-3.16-3.25-4.72-.51-.73-1.03-1.46-1.56-2.18-.58-.8-1.16-1.6-1.75-2.39-.76-1.02-1.52-2.02-2.29-3.02-.62-.8-1.24-1.6-1.87-2.39-.23-.3-.47-.6-.72-.9-.7-.89-1.41-1.76-2.13-2.64-.81-.98-1.62-1.95-2.44-2.91-.38-.45-.77-.9-1.16-1.35-4.72-5.46-9.7-10.7-14.91-15.7-.66-.63-1.32-1.25-1.98-1.87-1.44-1.35-2.89-2.67-4.36-3.98-.42-.38-.85-.76-1.28-1.13-.5-.44-1.01-.88-1.51-1.31-.55-.48-1.11-.96-1.67-1.43-.75-.64-1.51-1.27-2.27-1.89-.67-.56-1.34-1.11-2.02-1.65-.09-.07-.18-.15-.27-.22-.59-.47-1.18-.94-1.78-1.41-.95-.75-1.91-1.49-2.87-2.22-.79-.6-1.58-1.19-2.37-1.78-2.38-1.77-4.79-3.48-7.23-5.15-.75-.51-1.51-1.02-2.26-1.53-1.9-1.26-3.82-2.5-5.75-3.7-.82-.52-1.66-1.03-2.49-1.53-1.12-.68-2.24-1.35-3.37-2.01-1.25-.73-2.5-1.45-3.77-2.15-.73-.41-1.46-.82-2.2-1.22-3.48-1.89-7-3.7-10.58-5.4-.44-.22-.88-.43-1.32-.63-.87-.42-1.76-.83-2.64-1.23-.42-.19-.84-.38-1.26-.56-.91-.42-1.83-.82-2.75-1.22-.21-.09-.42-.18-.63-.27-.75-.33-1.51-.65-2.27-.96-5.7-2.38-11.51-4.53-17.43-6.44-.95-.32-1.91-.62-2.86-.91-.96-.3-1.93-.59-2.9-.88l-5.55-11.1-3.15-6.31c-.05-.1-.1-.21-.16-.32-.26-.51-.52-1.02-.8-1.53-.08-.15-.16-.31-.26-.46-.22-.41-.45-.81-.68-1.21-.16-.3-.32-.58-.48-.84-.32-.53-.64-1.04-.97-1.55l-.09-.16c-.32-.48-.64-.96-.95-1.4-.31-.45-.62-.9-.94-1.34-.31-.44-.63-.88-.97-1.31-.65-.86-1.32-1.71-2.02-2.53h-.01s-.05-.07-.08-.1c-.03-.04-.06-.08-.11-.12-.35-.42-.71-.83-1.08-1.24-.07-.09-.15-.17-.23-.26-.4-.44-.8-.87-1.21-1.29-.14-.14-.28-.29-.42-.43-.26-.27-.53-.54-.8-.8-.1-.11-.21-.22-.33-.32-.44-.43-.89-.85-1.34-1.27-.72-.65-1.46-1.29-2.21-1.91-.47-.39-.94-.77-1.42-1.14-.47-.37-.96-.74-1.45-1.09-.27-.21-.55-.41-.83-.6-.32-.23-.64-.45-.96-.67-.47-.34-.96-.66-1.44-.97l-.25-.16h-.02c-.47-.31-.95-.61-1.4-.88-.28-.18-.57-.35-.87-.5-.42-.25-.83-.49-1.26-.71-.13-.08-.26-.15-.38-.21-.55-.3-1.09-.58-1.65-.87l-.27-.13c-.08-.04-.17-.08-.25-.12-.4-.2-.8-.39-1.18-.57-.53-.25-1.07-.49-1.61-.72-1.22-.54-2.47-1.03-3.78-1.51l-.3-.1c-.57-.2-1.14-.39-1.73-.58-.14-.05-.28-.09-.42-.13-.61-.19-1.23-.38-1.83-.54-.69-.19-1.38-.38-2.08-.55-2.79-.67-5.64-1.16-8.46-1.46-.62-.06-1.26-.12-1.89-.16l-.47-.03c-2.83-.18-5.33-.18-7.8-.02l-.77.05c-.64.04-1.27.1-1.9.16-2.82.3-5.66.79-8.45,1.46-.7.17-1.4.36-2.06.54-.67.18-1.33.38-1.98.59-.02,0-.05.02-.07.02l-.1.03c-.62.2-1.24.4-1.8.6l-.42.15c-1.24.45-2.49.94-3.71,1.48-.55.23-1.1.48-1.6.72-.39.18-.79.36-1.18.56-.2.09-.4.19-.6.29-.52.27-1.03.54-1.54.82-.16.07-.32.16-.47.25-.41.22-.81.45-1.21.69-.3.15-.59.32-.84.48-.53.32-1.05.64-1.49.92l-.21.14c-.49.31-.97.63-1.39.93-.81.54-1.58,1.09-2.28,1.62-.47.35-.93.71-1.35,1.05-.45.35-.89.71-1.33,1.08-.67.55-1.32,1.12-1.96,1.7-.7.64-1.39,1.29-2.05,1.96-.52.52-1.02,1.04-1.52,1.57-.32.34-.63.68-.89.98-.39.43-.77.88-1.15,1.33-.46.53-.9,1.07-1.34,1.63-.27.34-.54.68-.8,1.03-.38.49-.74.98-1.03,1.41-.51.7-1.02,1.45-1.56,2.28-.2.32-.4.63-.6.94-.16.25-.32.52-.48.78l-.23.37c-.13.22-.26.45-.38.67-.25.42-.48.84-.71,1.26-.08.14-.15.27-.21.4-.29.51-.56,1.03-.85,1.6l-.09.19-3.19,6.39-45.94,91.88-2.92,5.84-11.55,23.09v-100.9l-46.68,53.01-5.84,6.63c-.99,1.12-1.96,2.25-2.92,3.4-.03.02-.06.05-.08.08-.87,1.03-1.74,2.08-2.6,3.14l-.54.66c-.43.53-.85,1.06-1.27,1.59-.19.23-.37.46-.54.69-.73.92-1.45,1.84-2.15,2.77-.12.15-.23.3-.34.45-.58.75-1.15,1.51-1.7,2.27-.02.02-.04.04-.05.06-.06.08-.12.16-.18.24-.7.93-1.38,1.87-2.05,2.82-.66.91-1.3,1.82-1.93,2.74-1.76,2.52-3.46,5.09-5.11,7.68-.71,1.11-1.4,2.23-2.08,3.35-.17.26-.33.52-.48.78-.54.88-1.06,1.76-1.58,2.64-1.71,2.89-3.35,5.81-4.93,8.78-.47.89-.94,1.79-1.41,2.69-6.9,13.36-20.54,21.65-35.59,21.66-6.31,0-12.64-1.55-18.31-4.48-9.49-4.9-16.51-13.21-19.75-23.39-3.25-10.18-2.33-21.01,2.57-30.5.8-1.55,1.62-3.1,2.45-4.64.64-1.2,1.29-2.39,1.96-3.57.04-.09.08-.18.14-.26.51-.93,1.03-1.85,1.56-2.76,0-.05.04-.09.07-.13.12-.23.25-.46.39-.68.03-.07.07-.14.12-.2.33-.58.66-1.16,1-1.74.33-.58.67-1.15,1.02-1.73,0-.02.02-.05.04-.07,1.06-1.81,2.15-3.61,3.27-5.39.46-.75.93-1.5,1.4-2.24.04-.07.08-.15.14-.22.38-.62.78-1.24,1.18-1.85.08-.14.16-.27.26-.4.39-.63.8-1.25,1.21-1.87.09-.15.19-.3.29-.45.39-.58.77-1.16,1.16-1.74.09-.14.17-.27.27-.4.42-.63.85-1.27,1.28-1.9.49-.73.99-1.45,1.5-2.17.5-.72,1.01-1.44,1.51-2.16.05-.08.1-.16.17-.24.34-.5.69-.99,1.06-1.48.08-.14.19-.29.31-.43,0,0-.02,0,0,0,0-.02.02-.04.04-.06.83-1.14,1.65-2.27,2.49-3.4.83-1.15,1.7-2.3,2.58-3.44.46-.62.93-1.24,1.41-1.85.39-.5.79-1.01,1.18-1.51,1.77-2.27,3.57-4.51,5.42-6.73.65-.78,1.29-1.55,1.95-2.32.15-.19.3-.37.46-.55.17-.21.35-.42.53-.62,0-.02.03-.04.05-.05.39-.45.77-.9,1.16-1.35.39-.47.79-.93,1.21-1.39.19-.23.39-.46.61-.69h.01c.64-.75,1.28-1.48,1.94-2.2.04-.06.1-.12.16-.18.91-1.02,1.83-2.03,2.76-3.04.05-.06.1-.12.15-.17,1.11-1.19,2.22-2.37,3.34-3.55.15-.16.3-.32.46-.48,1.08-1.13,2.17-2.25,3.28-3.37.02-.02.04-.05.07-.07.03-.04.06-.07.09-.09,1.17-1.2,2.36-2.38,3.56-3.55.02-.03.04-.05.07-.07,1.02-1,2.04-1.99,3.08-2.98,0-.01.03-.03.05-.04.31-.31.63-.61.95-.9.14-.13.27-.26.41-.39.75-.71,1.52-1.42,2.28-2.12,1.38-1.28,2.77-2.53,4.17-3.78.26-.23.52-.46.78-.69.9-.79,1.8-1.58,2.71-2.36,1.32-1.15,2.66-2.28,4.01-3.4.46-.39.93-.78,1.4-1.17,1.38-1.13,2.76-2.25,4.16-3.35.94-.76,1.89-1.51,2.84-2.23.02-.03.04-.05.06-.05.79-.62,1.59-1.23,2.39-1.83.6-.47,1.21-.93,1.82-1.38,1.07-.81,2.14-1.6,3.23-2.39.05-.04.09-.08.14-.1,1.73-1.27,3.47-2.51,5.22-3.72.33-.23.66-.47.99-.69.08-.06.15-.11.23-.16.61-.43,1.23-.85,1.85-1.27h0c.84-.57,1.68-1.14,2.53-1.7,2.64-1.77,5.32-3.49,8.02-5.17,21.71-13.5,45.08-24.28,69.45-32.03l.8-.27c.9-.31,1.82-.59,2.72-.84l.82-.23c29.06-8.77,59.25-13.22,89.73-13.22,41.83,0,82.44,8.2,120.68,24.38,2.35.99,4.69,2.02,7.01,3.07.95.42,1.89.86,2.83,1.3,3.55,1.64,7.05,3.35,10.52,5.12,1.07.54,2.14,1.1,3.2,1.66,1.32.69,2.64,1.39,3.95,2.11,1.11.61,2.22,1.22,3.33,1.84.58.32,1.15.64,1.73.97.53.31,1.05.61,1.57.91,1.1.63,2.19,1.27,3.29,1.92,1.08.64,2.17,1.29,3.25,1.95,1.08.66,2.16,1.33,3.23,2,1.58.99,3.14,1.99,4.7,3,1.62,1.06,3.24,2.14,4.84,3.23.04.03.09.06.13.09.93.63,1.86,1.26,2.77,1.91,1.81,1.25,3.6,2.53,5.39,3.83,1.36,1,2.72,2.01,4.07,3.03.66.49,1.31.99,1.96,1.49.91.7,1.82,1.4,2.73,2.12.84.65,1.67,1.31,2.5,1.98,4.16,3.33,8.23,6.78,12.23,10.34,4.54,4.04,8.97,8.22,13.3,12.55,1.04,1.04,2.07,2.09,3.09,3.14,3.36,3.45,6.62,6.96,9.8,10.54,1.03,1.16,2.05,2.33,3.06,3.51,1.25,1.44,2.47,2.88,3.67,4.34.59.71,1.17,1.41,1.75,2.13.23.28.46.55.68.83.45.55.89,1.1,1.33,1.66,8.25,10.33,15.79,21.14,22.63,32.41.45.76.91,1.51,1.35,2.27.35.58.7,1.17,1.04,1.76.13.21.25.42.37.64.54.91,1.06,1.82,1.58,2.74.1.16.19.33.28.49.22.38.43.76.64,1.14.06.09.11.18.15.27.69,1.23,1.37,2.46,2.04,3.69.74,1.38,1.48,2.76,2.21,4.15.94,1.82,1.87,3.64,2.78,5.48h0Z"/>
      <path d="M516.06,328.77c-.03-1.15-.06-2.29-.1-3.44-.05-1.57-.13-3.14-.22-4.7-.02-.4-.05-.8-.07-1.19-.02-.4-.05-.8-.08-1.2-.08-1.25-.18-2.5-.29-3.74-.04-.55-.1-1.1-.15-1.65-.15-1.67-.33-3.34-.53-4.99-.12-1.04-.25-2.08-.39-3.12-.84-6.29-1.95-12.5-3.33-18.6-.11-.49-.22-.98-.34-1.47-.62-2.71-1.31-5.4-2.04-8.06-.32-1.16-.65-2.32-.99-3.47-.37-1.27-.75-2.54-1.15-3.79-.31-.98-.62-1.95-.94-2.92-.2-.62-.41-1.24-.62-1.86-.16-.47-.32-.94-.49-1.42-.33-.96-.67-1.91-1.02-2.87-.2-.57-.42-1.14-.63-1.7-.21-.57-.42-1.13-.64-1.69-1.05-2.75-2.16-5.46-3.32-8.15-.34-.79-.69-1.57-1.04-2.35s-.7-1.56-1.06-2.34c-.33-.71-.66-1.42-.99-2.12-.34-.71-.68-1.41-1.02-2.11-.34-.71-.69-1.41-1.04-2.1-1.71-3.4-3.5-6.76-5.39-10.06-.55-.95-1.1-1.89-1.65-2.84-.85-1.42-1.71-2.84-2.58-4.24-.65-1.04-1.31-2.07-1.97-3.1h-.01c-.42-.66-.85-1.31-1.27-1.95-.43-.65-.86-1.29-1.3-1.93l-1.32-1.92c-.35-.51-.71-1.01-1.07-1.52-.85-1.21-1.72-2.4-2.6-3.59-.23-.32-.46-.64-.7-.95-.06-.08-.12-.16-.19-.24-.3-.41-.6-.81-.91-1.21-.69-.92-1.4-1.83-2.12-2.74-.24-.3-.47-.6-.71-.89-1.14-1.44-2.31-2.87-3.5-4.28-.34-.41-.69-.82-1.03-1.23-.03-.04-.07-.08-.1-.12h0c-.29-.35-.59-.7-.89-1.04-.14-.17-.28-.33-.43-.49-.51-.58-1.02-1.16-1.53-1.74s-1.03-1.16-1.55-1.73-1.05-1.14-1.57-1.7c-.79-.85-1.59-1.69-2.39-2.53-.8-.83-1.62-1.67-2.43-2.49-.92-.94-1.84-1.86-2.77-2.75-.56-.56-1.12-1.1-1.69-1.63-.37-.36-.75-.72-1.13-1.07-.65-.62-1.31-1.22-1.96-1.82-.65-.59-1.3-1.17-1.95-1.75-.6-.54-1.2-1.07-1.81-1.6-.61-.55-1.22-1.07-1.83-1.58-.61-.52-1.22-1.04-1.84-1.56-.05-.05-.1-.09-.15-.13-.42-.35-.84-.7-1.27-1.05-.14-.12-.29-.24-.44-.35-.59-.48-1.18-.96-1.77-1.43,0,0,0,0-.01,0-.06-.06-.13-.11-.2-.16-.03-.04-.07-.07-.11-.08-.56-.46-1.13-.9-1.69-1.34-.64-.5-1.28-1-1.92-1.47-.56-.43-1.12-.85-1.68-1.27-1.97-1.48-3.97-2.91-5.99-4.31-.8-.56-1.61-1.11-2.42-1.66-1.25-.84-2.5-1.66-3.77-2.48-.93-.59-1.86-1.19-2.8-1.76-.2-.13-.39-.25-.59-.37-1.1-.68-2.21-1.35-3.33-2.01-1.04-.62-2.09-1.23-3.15-1.83-.34-.19-.68-.39-1.02-.58-.71-.4-1.44-.8-2.16-1.19-1.36-.75-2.73-1.48-4.11-2.19-1.18-.62-2.37-1.22-3.56-1.81-.83-.41-1.66-.81-2.5-1.21-.54-.26-1.09-.52-1.63-.77-.15-.07-.29-.14-.44-.21-.17-.08-.34-.16-.52-.24-.65-.3-1.31-.6-1.96-.89-.45-.21-.91-.41-1.36-.6-.95-.43-1.91-.85-2.87-1.25-.93-.4-1.86-.78-2.8-1.16-1.41-.58-2.84-1.14-4.27-1.69-2.7-1.03-5.43-2.01-8.18-2.93l3.86,7.72,17.73,35.45,9.48,18.96,5.27,10.56,8.94,17.87,34.38,68.76,8.93,17.87,2.76,5.5,39.36,78.73,3.85,7.7c.92-2.73,1.78-5.49,2.58-8.28,5.38-18.69,8.26-38.43,8.26-58.83,0-1.42-.01-2.83-.04-4.24h-.01ZM503.8,383.77l-37.28-74.55-2.75-5.51-8.94-17.87-34.38-68.75-8.94-17.87-3.04-6.09-25.56-51.12c.86.36,1.71.72,2.56,1.1.1.05.21.09.31.14.47.2.94.4,1.41.62.95.42,1.89.85,2.83,1.28.99.46,1.98.93,2.96,1.41.05.02.1.05.15.07.78.38,1.56.76,2.34,1.16.51.24,1.01.5,1.51.76.17.08.34.17.51.26.65.34,1.3.66,1.94,1.01.07.04.13.07.2.11.08.04.17.08.25.13.14.07.27.14.41.22.05.03.11.06.16.09.72.37,1.43.76,2.15,1.16.03.02.06.03.09.05.38.21.77.42,1.15.64.08.04.16.08.24.14.71.39,1.42.79,2.13,1.2.78.45,1.56.91,2.34,1.38.15.09.3.17.45.26.41.24.82.49,1.23.74.03.02.06.04.09.05.74.45,1.47.9,2.19,1.36.26.16.52.33.78.49.69.43,1.38.88,2.07,1.33.38.24.75.48,1.12.73.69.45,1.38.91,2.06,1.37.45.3.91.6,1.36.92.33.22.66.45.98.68.44.3.88.6,1.31.91.44.31.87.61,1.3.93l1.5,1.08c.49.36.99.73,1.48,1.1.02,0,.03,0,.04.03.12.08.24.17.35.26,1.07.79,2.14,1.61,3.19,2.44.72.55,1.44,1.11,2.15,1.69.13.1.25.2.38.3.55.44,1.09.88,1.63,1.33.5.4.99.81,1.48,1.23.13.11.26.21.39.33.5.4.99.82,1.48,1.25.67.57,1.35,1.15,2.01,1.74.52.45,1.04.91,1.55,1.38,1.31,1.16,2.61,2.35,3.89,3.57.25.23.49.45.73.69.25.23.49.46.73.7,1.23,1.18,2.45,2.38,3.65,3.59,1.11,1.12,2.2,2.25,3.29,3.4.73.77,1.46,1.55,2.18,2.34.29.32.58.63.86.95.44.48.87.96,1.29,1.44.17.18.34.37.5.56.16.18.32.36.48.55.11.13.23.25.34.38.62.7,1.23,1.41,1.84,2.13.08.09.15.18.23.27.47.55.93,1.1,1.39,1.66.02.03.04.05.06.08.18.22.37.44.55.67.06.06.11.12.17.19.07.09.15.18.23.28.05.07.1.13.16.2,1.18,1.47,2.36,2.94,3.5,4.44.36.46.72.93,1.07,1.4.5.65.99,1.31,1.48,1.98.26.34.51.68.75,1.02.14.18.28.37.41.56.19.26.38.52.56.79.12.16.25.33.36.5.08.1.16.21.23.32.14.19.28.39.41.58.49.69.98,1.39,1.45,2.09.4.58.8,1.16,1.19,1.75.84,1.25,1.68,2.52,2.49,3.8.66,1.02,1.3,2.05,1.93,3.08.04.06.08.12.11.18.72,1.15,1.41,2.31,2.09,3.48.06.09.11.19.17.28.03.05.06.1.09.15.17.28.33.56.5.85.07.13.14.26.22.39.32.56.64,1.12.95,1.69.35.61.69,1.22,1.02,1.83.42.75.83,1.51,1.23,2.27.14.27.29.53.43.8.05.09.1.19.15.28.02.04.04.08.06.12.07.13.13.25.2.38,0,0,0,.02.01.03.11.19.21.39.3.59.05.09.1.19.15.28.2.38.39.76.58,1.13.08.16.16.32.24.48.04.08.09.17.13.25.33.64.64,1.27.95,1.91.02.05.05.1.07.15.25.51.5,1.02.74,1.53.02.03.03.07.05.1.73,1.52,1.44,3.06,2.13,4.6.06.12.11.23.15.35.27.57.52,1.15.77,1.73.41.93.8,1.85,1.19,2.79.49,1.16.97,2.34,1.43,3.51.47,1.18.93,2.36,1.37,3.55.01.01.01.02.01.02.42,1.11.82,2.22,1.22,3.34.47,1.33.93,2.66,1.38,4,.38,1.15.75,2.31,1.11,3.47.27.85.53,1.71.78,2.57.03.08.06.16.07.25.04.14.09.28.13.43.06.18.11.36.17.54.14.49.28.98.41,1.48.04.13.08.27.11.4.11.35.21.69.3,1.04.02.07.04.14.06.21.11.38.21.76.3,1.14.03.1.06.2.08.3.01.05.03.09.04.14.12.43.23.86.34,1.29.02.04.03.08.03.12h0c.26.98.5,1.94.73,2.92.09.33.17.66.24.99.11.47.23.93.34,1.4.02.12.05.24.07.36.01.04.02.08.03.12,0,.02,0,.05.02.07.01.05.02.09.03.14.01.08.03.16.05.24.07.29.13.57.19.86.22.96.43,1.93.62,2.9.02.06.03.11.04.17.16.77.31,1.54.46,2.31.08.41.16.82.23,1.23.09.45.17.9.25,1.35.14.74.26,1.48.38,2.22.11.6.21,1.21.3,1.81.1.62.2,1.25.29,1.88.01.1.03.19.04.29.02.12.04.23.05.35.01.07.02.15.03.22.02.11.04.22.05.33.1.62.19,1.24.27,1.86v.03c.17,1.19.31,2.39.45,3.58.02.2.05.39.07.59.12,1.01.22,2.03.32,3.05.04.34.07.68.1,1.02.09.89.17,1.79.23,2.69v.02c.03.31.06.63.08.95.07.83.12,1.66.17,2.5.08,1.08.14,2.17.18,3.25.01.08.01.16.01.24.04.51.05,1.02.08,1.53.01.25.02.5.02.75.01.15.01.3.02.45.04,1.02.06,2.04.08,3.07.03,1.34.04,2.68.04,4.02,0,17.51-2.18,34.51-6.3,50.76h0Z"/>
      <path d="M499.5,415.43c-13.32,31.64-34.08,59.41-60.07,81.12l-2.75-5.52-50.66-101.32-2.75-5.5-8.94-17.87-27.25-54.5c-.23-.46-.46-.91-.71-1.36-.24-.45-.48-.89-.74-1.33-.11-.2-.22-.39-.34-.58-.51-.85-1.04-1.69-1.6-2.51-.27-.41-.56-.82-.85-1.21-.2-.28-.4-.55-.61-.82-.49-.66-1-1.29-1.53-1.92-.31-.39-.64-.77-.99-1.14-.21-.25-.44-.5-.68-.75h0s-.04-.06-.07-.08c-.24-.27-.5-.54-.76-.8-.33-.34-.66-.67-1-.99-.23-.23-.47-.46-.71-.67-.48-.45-.97-.89-1.46-1.3-.34-.3-.68-.59-1.02-.85-.34-.29-.68-.56-1.03-.82-.4-.31-.81-.62-1.22-.91-.17-.12-.33-.24-.5-.35-.31-.22-.63-.44-.94-.65-.27-.18-.55-.36-.82-.52-.15-.11-.31-.21-.47-.3-.14-.09-.28-.18-.42-.26-.26-.16-.52-.32-.79-.47-.17-.11-.35-.21-.52-.3-.33-.19-.66-.37-1-.55-.48-.26-.97-.51-1.47-.75-.49-.25-.98-.48-1.49-.7-.18-.09-.36-.17-.54-.24-.18-.09-.36-.16-.54-.23-.24-.11-.48-.21-.72-.3-.24-.11-.48-.2-.72-.28-.04-.03-.09-.05-.14-.06-.18-.08-.36-.14-.54-.21-.04-.01-.08-.03-.12-.04-.22-.08-.43-.16-.65-.23-.37-.13-.74-.26-1.11-.37-.37-.13-.74-.24-1.12-.35-.31-.1-.63-.19-.95-.27-.01,0-.03-.02-.06-.02-.73-.21-1.48-.39-2.24-.56-.07-.02-.14-.03-.21-.04-.28-.07-.57-.13-.85-.18-.84-.17-1.68-.32-2.54-.44-.21-.04-.42-.07-.64-.09-.1-.02-.2-.03-.31-.04-.03,0-.06-.02-.1-.02-.1-.01-.19-.02-.28-.03-.1-.02-.2-.02-.29-.03-.05-.01-.11-.02-.16-.02-.2-.03-.41-.05-.61-.07l-1.02-.09c-.06,0-.12-.01-.18-.01-.23-.02-.45-.04-.68-.04-.53-.04-1.06-.06-1.59-.08-.48-.01-.96-.02-1.44-.02-5.91,0-11.62,1.03-16.95,2.96-2.06.75-4.07,1.64-6,2.65-6.67,3.5-12.51,8.53-17,14.79-1.55,2.14-2.94,4.43-4.15,6.85l-31.75,63.5h0l-8.24,16.5h0l-26.8,53.62-9.04,18.08-79.79,159.58c-.27.54-.55,1.07-.84,1.59-.13.26-.28.51-.43.75-.15.25-.29.51-.44.76-.52.88-1.08,1.74-1.66,2.57-.12.18-.25.36-.39.54-.25.36-.51.71-.78,1.06-.13.18-.26.35-.4.52-.03.04-.06.08-.1.12-.1.14-.21.27-.32.4-.08.11-.17.22-.26.32-.29.36-.59.71-.89,1.05-.07.08-.14.17-.23.25-.24.28-.49.55-.75.82-.13.15-.26.29-.41.43-.19.21-.4.42-.6.62-.18.18-.36.36-.55.53-.31.3-.62.59-.94.88-.3.28-.6.55-.91.81-.13.13-.27.24-.4.34-.31.27-.63.53-.95.78-.39.31-.78.61-1.17.9-.4.3-.8.59-1.21.87-.4.28-.82.55-1.23.82h-.01c-.06.05-.11.09-.17.11-.18.13-.36.25-.55.36-.2.13-.41.25-.62.37-.46.27-.92.53-1.38.79-.46.25-.93.5-1.41.74-.45.23-.9.44-1.36.65-.04.03-.09.05-.14.07-.41.19-.83.37-1.24.54-.23.11-.47.21-.7.3-.05.02-.1.04-.15.06-.04.02-.09.03-.13.04h0c-.22.1-.44.18-.66.25-.5.19-1,.37-1.51.54s-1.02.33-1.53.48c-.25.08-.51.15-.77.22-.26.08-.52.15-.78.21-.42.11-.84.21-1.26.3-.28.07-.56.13-.84.19-.34.07-.68.14-1.03.2-.45.08-.89.15-1.34.22-.31.05-.62.09-.94.13-.33.05-.67.09-1.01.12-.17.02-.34.04-.51.05-.07.02-.14.02-.22.02-.22.03-.44.05-.67.06-.08.01-.17.02-.25.02-.16.01-.32.02-.48.03-.4.03-.8.05-1.2.06-.53.02-1.05.03-1.58.03-1.64,0-3.27-.09-4.88-.27-.21-.02-.41-.04-.62-.07-.33-.04-.66-.08-.98-.13-.86-.12-1.71-.27-2.55-.45-.42-.09-.84-.18-1.26-.28-.26-.06-.51-.12-.77-.19-.3-.07-.59-.15-.89-.24-.28-.07-.56-.15-.84-.24-.24-.07-.48-.14-.72-.23-.16-.04-.31-.09-.47-.15-.31-.1-.61-.21-.91-.31-.25-.09-.5-.18-.75-.27-.08-.02-.16-.06-.25-.09h0c-.3-.12-.6-.24-.89-.36-.32-.12-.64-.26-.97-.4-.37-.16-.75-.33-1.13-.51-.4-.18-.79-.37-1.19-.57-.41-.21-.82-.42-1.23-.64-.26-.14-.52-.29-.78-.44-.34-.18-.67-.38-1-.58-.31-.18-.62-.37-.92-.56-.16-.1-.32-.2-.47-.3-.47-.3-.93-.61-1.38-.93-.77-.54-1.51-1.1-2.23-1.68-.02-.02-.05-.04-.08-.07-.02,0-.03-.01-.05-.03-.18-.14-.35-.28-.52-.44-.33-.27-.66-.55-.98-.84h0s-.03-.02-.04-.04h0c-.39-.35-.78-.7-1.16-1.07h0c-.28-.28-.56-.55-.83-.82-.03,0-.04-.02-.04-.03-.04-.03-.07-.06-.1-.1-.03-.03-.07-.06-.1-.1-.09-.09-.19-.19-.28-.29-.1-.1-.2-.2-.29-.31-.27-.28-.53-.56-.78-.85-.79-.86-1.52-1.74-2.21-2.65-.24-.31-.47-.61-.69-.92-.23-.31-.45-.62-.66-.94-.04-.04-.06-.07-.08-.11-.21-.29-.4-.58-.59-.88-.26-.38-.5-.77-.74-1.17-.15-.24-.3-.48-.43-.73-.17-.28-.33-.56-.49-.85-.03-.05-.06-.09-.08-.14-.2-.36-.39-.73-.58-1.1-.24-.45-.46-.91-.68-1.38-.02-.04-.05-.09-.07-.14-.15-.33-.31-.66-.45-1-.05-.1-.09-.19-.13-.29-.14-.33-.28-.66-.41-.99-.02-.05-.04-.09-.05-.13-.09-.21-.17-.41-.24-.62-.02-.02-.03-.04-.03-.07-.13-.34-.25-.67-.37-1.01-.18-.48-.34-.96-.49-1.46-.16-.48-.3-.97-.44-1.47-.27-.98-.52-1.98-.72-2.98-.08-.38-.16-.76-.22-1.14-.05-.2-.08-.41-.11-.62-.06-.33-.11-.66-.16-1-.02-.14-.04-.28-.06-.43-.06-.45-.11-.91-.16-1.37-.05-.51-.1-1.02-.13-1.53-.04-.51-.07-1.03-.08-1.54-.02-.52-.03-1.04-.03-1.57,0-.41,0-.82.02-1.24,0-.25.01-.5.03-.76.01-.26.02-.52.04-.79.02-.28.04-.55.06-.82,0-.06.01-.12.01-.17.02-.22.04-.44.07-.65.01-.14.02-.28.04-.41.02-.14.04-.27.05-.41,0-.06,0-.11.01-.16.03-.22.06-.44.09-.66h0c.04-.32.09-.62.14-.93.05-.37.11-.73.19-1.1.09-.49.19-.99.3-1.49.1-.49.22-.99.35-1.48.03-.13.07-.26.1-.39.1-.39.21-.78.33-1.17.12-.42.25-.83.38-1.25.14-.41.28-.83.43-1.24.3-.83.62-1.65.97-2.47.35-.81.73-1.62,1.13-2.43l137.29-274.59,54.66-109.32,2.92-5.84,45.05-90.1c.06-.11.12-.23.18-.35.18-.35.36-.69.55-1.03l.22-.4.08-.15.02-.05c.1-.17.19-.33.29-.5l.22-.37.13-.25.28-.46.15-.23.11-.18c.13-.21.27-.42.41-.64.36-.56.68-1.03.98-1.45l.24-.33c.15-.23.32-.45.49-.66l.09-.13c.77-1.01,1.55-1.96,2.33-2.83l.17-.19c.16-.18.33-.37.49-.54.34-.37.72-.76,1.11-1.14,1.18-1.19,2.43-2.3,3.73-3.32l.19-.15c.28-.23.56-.44.84-.65.5-.38.99-.73,1.51-1.07,0,0,.53-.37.66-.46l.54-.35c.39-.25.78-.49,1.18-.73l.28-.15s.56-.33.65-.39l.05-.02.71-.39.28-.15.04-.03c.22-.12.44-.23.67-.35l.14-.06.63-.31c.18-.1.37-.19.56-.27h.01s.03-.02.05-.03l.19-.1c.33-.15.67-.3,1-.44.82-.36,1.62-.68,2.42-.98.22-.07.41-.14.56-.19.3-.11.6-.21.9-.3l.07-.02.5-.17c.39-.12.78-.24,1.18-.35l.09-.03c.48-.13.97-.26,1.47-.38,2.05-.5,4.09-.85,6.1-1.06.41-.04.83-.09,1.26-.11l.68-.05c.88-.05,1.75-.08,2.63-.08s1.86.03,2.92.1l.44.03c.39.02.82.07,1.24.11,1.99.21,4.03.56,6.05,1.05.53.13,1.02.26,1.5.39l.1.03c.4.11.79.23,1.18.35l1.04.34c.15.05.8.28.8.28.86.31,1.72.65,2.56,1.02.41.18.78.34,1.14.51.05.03.1.05.15.07h.01c.11.06.21.1.3.15.09.04.17.08.25.12l.46.24.28.15.28.12c.21.11.42.22.63.33l.57.32.09.04c.17.09.33.19.49.29l.38.22.27.14c.33.2.65.4.98.61.19.13.39.25.59.38.18.12.36.24.54.37l.2.13c4.61,3.14,8.54,7.08,11.7,11.71,0,0,.34.48.44.63l.31.48c.25.39.49.78.73,1.18l.14.28s.34.57.4.67l.02.04.2.36.16.29.18.35.04.05c.16.3.31.6.47.9l2.02,4.03,9.76,19.53,3.58,7.15,29.79,59.58,2.92,5.84,4.08,8.16,2.74,5.5,8.94,17.87,34.38,68.76,8.93,17.87,49.15,98.3h0Z"/>
      <path d="M587.77,607c-.02.28-.05.57-.08.85-.2,1.87-.52,3.72-.95,5.54-.01.04-.02.07-.03.11-3,12.47-11.27,23.59-23.61,29.75-6.32,3.16-13.08,4.76-20.07,4.76-8.89,0-17.32-2.56-24.45-7.16-6.64-4.27-12.15-10.33-15.86-17.73l-8.63-17.26-2.72-5.43c13.82-9.74,26.91-20.58,39.19-32.49,1.26-1.22,2.52-2.45,3.76-3.7,4.95-4.95,9.72-10.04,14.32-15.26,1.69-1.91,3.36-3.85,4.99-5.8,2.06-2.44,4.07-4.91,6.05-7.4l2.96,5.91,1.38,2.76,3.45,6.9,15.76,31.53c3.86,7.74,5.29,16.08,4.54,24.12h0Z"/>
      <path d="M427.08,498.68l-50.01-100.02-2.75-5.5-8.93-17.87-29.04-58.08c-.24-.49-.5-.97-.76-1.45-.02-.02-.03-.04-.04-.06-.26-.46-.53-.91-.8-1.36-.17-.28-.34-.56-.52-.83-.36-.57-.74-1.12-1.14-1.66-.17-.24-.35-.48-.54-.72-.89-1.16-1.84-2.26-2.84-3.3-.58-.6-1.18-1.17-1.79-1.72-.19-.17-.38-.34-.57-.5-.36-.32-.73-.63-1.11-.92-.22-.18-.44-.34-.66-.51-.84-.65-1.7-1.25-2.59-1.81-.34-.22-.69-.43-1.05-.64-.33-.2-.67-.39-1-.57-.39-.22-.78-.42-1.17-.61-.29-.15-.58-.3-.88-.43-.14-.07-.28-.14-.42-.2-.25-.11-.5-.22-.76-.33-.52-.23-1.04-.44-1.57-.63-.31-.12-.62-.22-.93-.33-.78-.28-1.58-.52-2.38-.73-.26-.07-.53-.14-.79-.21-.19-.05-.38-.1-.57-.14-.33-.08-.66-.15-1-.21-.31-.07-.62-.13-.94-.18-.35-.06-.7-.12-1.05-.17-.23-.04-.46-.07-.69-.09-.28-.04-.56-.07-.84-.1-.39-.04-.77-.08-1.16-.11-.93-.07-1.86-.1-2.8-.1-6.04,0-11.81,1.43-16.95,4.04-2.12,1.07-4.13,2.35-6,3.81v57.65c1.93-.97,3.94-1.82,6-2.53,5.31-1.85,11.01-2.86,16.95-2.86.79,0,1.57.02,2.35.06.54.02,1.08.05,1.62.09.08.01.16.01.24.02.35.03.71.06,1.06.1.44.04.87.09,1.3.15.44.05.86.11,1.29.18.29.04.58.09.87.14.37.06.73.13,1.09.2,2.65.51,5.22,1.22,7.7,2.12.3.1.59.21.89.33.41.15.81.31,1.21.48.5.2,1,.42,1.49.64.43.19.86.39,1.28.6.1.04.19.09.28.14.16.07.31.15.47.23.69.34,1.37.7,2.04,1.08.32.17.63.35.93.54.85.49,1.68,1.01,2.5,1.56.24.16.49.32.73.5,1.56,1.07,3.05,2.23,4.48,3.46.31.27.62.55.92.83,1.65,1.49,3.2,3.09,4.64,4.78.29.35.59.71.88,1.07.39.49.78.98,1.15,1.49.2.26.39.52.58.78,1.51,2.09,2.86,4.3,4.04,6.61.2.38.38.75.56,1.13.56,1.15,1.08,2.33,1.55,3.53.18.45.35.91.51,1.37.11.28.2.56.3.85.56,1.62,1.03,3.28,1.42,4.98l.21.93c.47,2.2.79,4.46.97,6.76.03.44.06.87.08,1.31.01.06.01.12.01.18.04.82.06,1.65.06,2.48,0,1.16-.04,2.32-.12,3.46-.02.38-.05.76-.09,1.14-.02.36-.06.71-.11,1.07-.09.96-.23,1.91-.39,2.85-.05.32-.1.65-.17.97-.33,1.81-.76,3.59-1.29,5.33h0c-.01.07-.02.12-.04.17-.14.47-.28.93-.44,1.38-.17.51-.35,1.02-.54,1.52-.17.47-.35.94-.54,1.4-.04.1-.07.2-.12.29-.17.44-.36.87-.55,1.3-.13.3-.26.59-.4.88-.36.78-.74,1.55-1.15,2.3-.19.37-.39.74-.6,1.11-.11.21-.23.42-.36.63-.4.71-.83,1.41-1.28,2.1-.26.41-.53.82-.81,1.22-.27.4-.55.8-.84,1.19-.14.2-.29.4-.44.59-.24.34-.5.66-.75.99-.3.38-.61.76-.92,1.13-.33.4-.68.81-1.03,1.2-.35.4-.7.79-1.07,1.17-.36.39-.73.77-1.1,1.14-.37.37-.75.74-1.14,1.1-.38.37-.77.72-1.17,1.07-.33.3-.67.59-1.01.87-.3.26-.6.51-.91.75-.67.54-1.35,1.06-2.05,1.56-.34.25-.68.49-1.03.73-1.31.91-2.66,1.75-4.06,2.52-.33.19-.67.38-1.02.56-.75.4-1.51.78-2.28,1.14-.33.16-.66.31-.99.45-.49.22-.99.43-1.49.63-.5.21-1,.4-1.5.59s-1.01.36-1.52.53c-.5.17-1.01.33-1.52.48h-.03c-.69.22-1.39.42-2.1.59-.35.09-.7.18-1.06.26-.61.15-1.23.28-1.86.39-.42.09-.85.17-1.28.23-.64.12-1.29.21-1.95.29-.3.04-.6.08-.91.11-.35.04-.7.08-1.05.1-1.52.14-3.06.21-4.61.21-5.94,0-11.64-1.01-16.95-2.86-.42-.15-.85-.3-1.27-.46-.18-.07-.37-.14-.56-.22-.02,0-.04-.01-.06-.02-1.4-.54-2.77-1.16-4.11-1.83v91.32h23.06c.88,0,1.77-.01,2.65-.02.61,0,1.21,0,1.81-.03.78-.02,1.57-.03,2.35-.06.55-.01,1.09-.03,1.63-.06.7-.02,1.4-.05,2.1-.09.7-.03,1.4-.07,2.09-.11.52-.03,1.02-.06,1.53-.1.39-.02.79-.05,1.18-.08,1.89-.13,3.76-.29,5.63-.47,1.38-.14,2.74-.29,4.11-.45,1.41-.16,2.82-.34,4.22-.54.64-.09,1.28-.18,1.91-.27,1.28-.19,2.56-.39,3.83-.6.08-.02.16-.03.25-.04.91-.15,1.81-.31,2.72-.48,5.15-.93,10.23-2.04,15.24-3.34,1.07-.28,2.14-.56,3.2-.85.7-.19,1.39-.39,2.09-.59.51-.14,1.02-.29,1.52-.44,1.62-.48,3.24-.97,4.85-1.49,1.28-.41,2.55-.83,3.82-1.27,1.27-.43,2.53-.87,3.79-1.33h.04c1.25-.46,2.49-.92,3.72-1.4,1.25-.48,2.49-.97,3.72-1.47,1.24-.5,2.47-1.02,3.69-1.54,1.01-.43,2.01-.87,3-1.32.94-.42,1.87-.84,2.8-1.28.69-.31,1.38-.64,2.07-.97.12-.06.25-.12.37-.18.59-.28,1.18-.57,1.77-.86.16-.08.33-.16.49-.24.31-.15.63-.31.94-.47,1.2-.6,2.39-1.21,3.58-1.84.68-.35,1.35-.7,2.01-1.07,1.28-.69,2.55-1.39,3.82-2.11.47-.26.93-.53,1.39-.8,1.4-.8,2.8-1.62,4.18-2.47.65-.39,1.3-.79,1.95-1.19.2-.12.39-.24.59-.37.72-.44,1.43-.9,2.14-1.36,2.36-1.51,4.69-3.07,6.99-4.68,1.66-1.16,3.31-2.34,4.93-3.55l-2.73-5.45h0ZM303.1,540.02h-17.06v-76.47c.48.15.97.29,1.46.42.05.01.1.03.15.04.27.08.55.15.83.22.06.03.13.04.19.05.48.13.96.25,1.45.36.48.11.97.22,1.46.31.12.03.24.05.36.07.13.03.26.05.4.08.13.02.26.05.39.07.01,0,.02,0,.03.01.27.05.55.1.83.14.05.01.11.01.16.02.06.01.11.02.17.03.26.05.52.09.78.12.26.04.52.08.79.11.68.09,1.35.17,2.03.23.63.06,1.26.11,1.9.15.6.04,1.21.06,1.82.08.06.01.11.01.17.01.52.01,1.05.02,1.58.02,1.06,0,2.11-.03,3.15-.09.33,0,.66-.03.99-.06.18,0,.35-.02.52-.04.4-.03.8-.06,1.19-.11.41-.04.82-.08,1.23-.13.18-.02.36-.05.54-.07.39-.05.77-.11,1.16-.17.38-.06.77-.12,1.15-.19.27-.04.53-.09.79-.14.2-.04.4-.08.6-.12s.4-.08.6-.12c.47-.1.93-.2,1.4-.31.08-.02.17-.04.25-.06.63-.15,1.26-.32,1.88-.49.02,0,.03-.01.05-.02.4-.11.8-.23,1.2-.35.34-.1.67-.2,1-.31.1-.03.19-.06.28-.09.69-.22,1.38-.47,2.06-.72.08-.03.17-.06.25-.1.29-.1.57-.21.85-.32.24-.09.47-.19.7-.29.14-.05.28-.1.42-.16.56-.24,1.12-.49,1.68-.74.28-.13.55-.26.82-.39.5-.23.99-.48,1.48-.73.48-.25.97-.51,1.45-.77.34-.18.67-.37,1.01-.57.4-.23.8-.46,1.2-.71.52-.32,1.04-.65,1.55-.98.05-.03.1-.06.15-.09.1-.07.21-.14.31-.21.55-.37,1.09-.74,1.63-1.13.3-.21.6-.43.89-.65.22-.16.44-.33.66-.5.26-.2.52-.4.78-.61.63-.5,1.26-1.02,1.87-1.55.7-.6,1.38-1.22,2.05-1.86.52-.5,1.03-1,1.53-1.52l.27-.27c.53-.55,1.05-1.12,1.56-1.7.47-.52.92-1.04,1.36-1.58.02-.02.03-.04.05-.06.15-.18.3-.37.45-.56.41-.51.82-1.03,1.21-1.56.28-.37.55-.74.82-1.12.31-.44.62-.88.91-1.33.29-.43.57-.85.84-1.28.56-.89,1.1-1.79,1.61-2.7,0-.01.02-.03.02-.04.08-.15.16-.29.24-.43.08-.14.15-.28.23-.42.38-.72.76-1.44,1.11-2.18.31-.63.6-1.27.88-1.91.14-.33.28-.65.41-.97.14-.32.27-.65.4-.98.22-.56.43-1.12.63-1.68s.39-1.13.58-1.7c.13-.38.25-.76.36-1.15.11-.36.22-.73.32-1.09.14-.5.27-1,.4-1.5.04-.18.08-.35.13-.53l.03-.15c.11-.47.22-.94.32-1.41.09-.4.17-.81.24-1.21.05-.3.11-.6.16-.9s.11-.6.15-.91c.01-.04.02-.08.02-.12.06-.4.12-.79.17-1.18.02-.16.04-.32.06-.48.01-.01.01-.02.01-.03v-.02c.05-.42.1-.85.14-1.28.04-.36.07-.72.1-1.08.01-.21.03-.42.04-.63.03-.3.05-.61.06-.91.06-1.05.09-2.11.09-3.17,0-.53-.01-1.06-.02-1.59-.01-.46-.03-.92-.06-1.38-.02-.49-.05-.98-.09-1.46-.02-.35-.05-.69-.09-1.03,0-.03-.01-.06-.01-.09-.05-.53-.1-1.05-.17-1.58-.07-.55-.15-1.1-.23-1.65-.04-.27-.08-.55-.13-.83-.04-.21-.07-.42-.11-.62-.08-.47-.17-.93-.27-1.4-.12-.57-.24-1.14-.38-1.71,0-.02-.01-.03-.01-.05-.01-.04-.02-.09-.03-.13-.03-.1-.05-.19-.07-.29-.02-.08-.04-.17-.07-.25-.03-.15-.07-.3-.11-.45-.08-.3-.16-.6-.24-.9-.02-.07-.04-.14-.06-.21-.07-.27-.15-.53-.23-.79-.12-.41-.24-.81-.38-1.21-.08-.29-.18-.58-.28-.87-.17-.52-.36-1.03-.55-1.54-.21-.57-.43-1.13-.66-1.69-.23-.58-.48-1.15-.73-1.72-.12-.27-.25-.55-.37-.82-.25-.53-.5-1.05-.76-1.56,0-.02-.02-.05-.04-.07-.2-.43-.42-.84-.65-1.26-.11-.2-.22-.41-.33-.61-.17-.32-.35-.63-.53-.94-.23-.4-.46-.8-.71-1.2-.18-.29-.35-.57-.53-.86-.01-.02-.03-.04-.04-.06-.14-.21-.27-.42-.41-.63-.27-.42-.55-.84-.84-1.25-.29-.42-.58-.84-.89-1.25-.47-.66-.97-1.31-1.47-1.94-.2-.25-.41-.5-.61-.75-.33-.41-.67-.81-1.02-1.2-.23-.27-.46-.53-.71-.79-.25-.3-.53-.59-.8-.88-.26-.27-.52-.55-.78-.81-.31-.32-.62-.63-.94-.94-.07-.07-.14-.13-.2-.2-.35-.33-.7-.67-1.06-.99-.09-.08-.17-.16-.26-.24-.44-.4-.88-.79-1.34-1.18-.08-.08-.17-.15-.26-.23-.51-.43-1.04-.86-1.57-1.28-.02-.01-.05-.03-.07-.05-.6-.47-1.21-.94-1.84-1.38-.19-.14-.4-.29-.6-.43-.06-.04-.11-.08-.17-.12-.03-.02-.06-.04-.09-.06-.34-.24-.68-.47-1.03-.7-.48-.32-.96-.63-1.45-.93-.39-.24-.78-.48-1.18-.71-.01-.01-.02-.01-.03-.02-.37-.22-.74-.43-1.11-.64-.31-.17-.62-.35-.94-.51-.69-.38-1.39-.73-2.1-1.07-.63-.31-1.27-.6-1.91-.88s-1.29-.55-1.94-.81c-.52-.21-1.04-.4-1.56-.58-.25-.1-.51-.19-.76-.27-.17-.06-.33-.12-.5-.17-.05-.03-.1-.04-.15-.05-.22-.08-.43-.15-.65-.22-.05-.02-.1-.03-.15-.04-.41-.13-.82-.26-1.24-.38-.38-.11-.76-.22-1.14-.32-.03-.01-.07-.02-.1-.03s-.05-.01-.08-.02c-.49-.13-.98-.26-1.47-.37-.26-.07-.52-.13-.79-.18-.26-.06-.52-.11-.78-.17-.29-.06-.59-.12-.9-.18-.37-.07-.75-.14-1.13-.2-.01-.01-.02-.01-.03-.01-.3-.05-.62-.1-.93-.15s-.61-.1-.92-.13c-.33-.05-.66-.09-1-.13-.35-.05-.71-.09-1.07-.12-.34-.04-.69-.07-1.04-.09-.23-.02-.47-.04-.7-.05-.36-.03-.72-.06-1.08-.07-.5-.03-.99-.05-1.48-.06-.5-.01-.99-.02-1.49-.02-5.9,0-11.59.89-16.95,2.54v-45.78c.33-.21.67-.42,1.01-.62.21-.12.42-.24.63-.35.1-.06.2-.12.3-.17.17-.1.34-.19.52-.28.05-.03.11-.05.17-.08.12-.06.25-.13.37-.19.02-.01.03-.02.05-.02.08-.04.17-.09.25-.13.07-.04.14-.07.21-.1.11-.06.22-.1.33-.15.04-.02.08-.04.12-.05.46-.21.92-.4,1.39-.58.31-.13.63-.25.96-.36.34-.13.69-.24,1.05-.35.29-.09.58-.18.87-.26.03-.01.05-.01.08-.02.22-.06.44-.12.67-.18.19-.05.37-.09.56-.13.04-.02.09-.03.13-.03.44-.11.88-.2,1.33-.28.17-.04.34-.07.51-.09.37-.06.73-.11,1.09-.16.36-.05.72-.09,1.07-.13h.03c1.07-.11,2.15-.16,3.25-.16.3,0,.6,0,.89.02h.41c.16.01.32.02.48.03h.18c.09.01.19.01.29.02.11.01.23.02.34.03.12,0,.24.01.36.03.21.01.43.03.64.06.2.01.4.04.6.07.16.02.32.04.49.07h.12c.27.04.54.08.8.13.34.05.68.12,1.01.19.36.07.71.15,1.06.24.22.05.44.11.66.17.22.06.43.12.64.18.44.12.86.26,1.28.4.25.08.5.17.75.26.26.09.51.19.77.29.53.21,1.05.43,1.57.68.19.08.38.17.57.27.19.09.37.18.56.28.37.19.74.39,1.1.6.36.2.72.41,1.08.64.33.2.65.41.97.63,1.07.73,2.09,1.52,3.06,2.39.15.12.29.26.43.39.15.13.29.27.43.4.02.02.05.04.07.07.03.03.07.06.1.1.14.13.28.26.4.4.07.06.14.13.2.2s.12.14.19.2c.26.26.51.53.75.81.1.1.19.21.28.32.23.27.46.54.68.81.2.25.4.5.59.76.18.22.34.45.5.68.23.31.45.63.65.95.02.02.03.03.04.05.03.04.05.07.07.11.23.34.45.69.66,1.05.18.29.35.59.52.89.26.46.51.93.75,1.41l29.94,59.87,8.93,17.87,2.75,5.5,49.57,99.13c-33.7,23.78-74.78,37.76-119.07,37.76v.02Z"/>
      <path d="M340.34,408.4c0,20.63-16.72,37.35-37.35,37.35-1.53,0-3.03-.09-4.5-.27-.74-.09-1.47-.2-2.2-.33-.21-.04-.43-.08-.64-.12-.06-.01-.11-.02-.16-.04-.32-.06-.64-.13-.96-.21-.39-.08-.77-.18-1.14-.28-.23-.06-.45-.12-.68-.19-.28-.08-.57-.16-.85-.25-.52-.16-1.03-.33-1.54-.52-.34-.12-.68-.25-1.01-.38-.29-.11-.58-.23-.87-.36-.25-.09-.49-.2-.73-.32-.24-.1-.47-.2-.71-.32-.32-.15-.64-.31-.96-.47-2.13-1.08-4.13-2.37-6-3.82v-58.94c1.87-1.45,3.87-2.74,6-3.82,5.09-2.6,10.85-4.06,16.95-4.06,1.15,0,2.29.05,3.41.16.21.01.41.03.62.06.41.04.82.09,1.23.15.45.06.9.13,1.35.21.62.11,1.22.24,1.82.38.3.07.6.14.9.22.6.15,1.19.32,1.77.5.38.12.76.24,1.13.37.38.13.75.26,1.11.41.23.08.46.17.69.27.81.32,1.61.68,2.38,1.06.2.1.4.2.59.3.4.2.8.41,1.18.63.32.18.64.36.95.55.41.24.81.49,1.21.75.24.15.47.3.69.46.02.01.04.02.05.04.05.03.1.06.14.09.88.6,1.72,1.24,2.54,1.92.46.38.91.77,1.35,1.17.32.29.63.58.93.88.34.32.67.66,1,1,.41.43.81.87,1.2,1.33.27.31.53.62.78.93.34.41.66.83.97,1.25.16.21.32.43.47.64.29.4.57.82.84,1.24.16.24.31.48.46.72.38.61.74,1.23,1.08,1.86.23.43.46.87.68,1.32.06.13.12.25.18.37.07.13.13.25.18.38.12.26.24.52.35.78.35.78.67,1.58.95,2.39.08.21.15.42.22.63.29.85.55,1.72.77,2.6.08.3.15.6.22.9.09.36.17.72.24,1.09.12.6.22,1.2.31,1.8.05.3.09.6.12.91.05.4.09.8.13,1.2.04.4.07.81.09,1.22.03.36.04.73.05,1.1v.39c.01.24.01.48.01.72h.01Z"/>
    </g>
  </g>
</svg>