<?xml version="1.0" encoding="UTF-8"?>
<svg id="Capa_1" xmlns="http://www.w3.org/2000/svg" version="1.1" viewBox="0 0 800 800">
  <!-- Generator: Adobe Illustrator 30.2.1, SVG Export Plug-In . SVG Version: 2.1.1 Build 1)  -->
  <defs>
    <style>
      .st0 {
        fill: #fff;
      }
    </style>
  </defs>
  <path class="st0" d="M509.4,82.6c20.8,8,31.5,32.2,23.9,54.1l-191.5,555.5c-7.6,21.9-30.5,33.2-51.3,25.2-20.8-8-31.5-32.2-23.9-54.1L458.2,107.8c7.6-21.9,30.5-33.2,51.3-25.2ZM96.6,410.2l141.4,149.3c15.6,16.5,15.6,43.2,0,59.7-15.6,16.5-40.9,16.5-56.6,0L11.7,440.1c-15.6-16.5-15.6-43.2,0-59.7l169.7-179.2c15.6-16.5,40.9-16.5,56.6,0s15.6,43.2,0,59.7l-141.4,149.3ZM703.4,410.2l-141.4-149.3c-15.6-16.5-15.6-43.2,0-59.7,15.6-16.5,40.9-16.5,56.6,0l169.7,179.2c15.6,16.5,15.6,43.2,0,59.7l-169.7,179.2c-15.6,16.5-40.9,16.5-56.6,0-15.6-16.5-15.6-43.2,0-59.7l141.4-149.3Z"/>
</svg>