<?xml version="1.0" encoding="UTF-8"?>
<svg id="Uploaded_to_svgrepo.com" xmlns="http://www.w3.org/2000/svg" version="1.1" viewBox="0 0 800 800">
  <!-- Generator: Adobe Illustrator 30.2.1, SVG Export Plug-In . SVG Version: 2.1.1 Build 1)  -->
  <defs>
    <style>
      .st0 {
        fill: #fff;
      }
    </style>
  </defs>
  <g>
    <rect class="st0" x="225" y="25" width="325" height="50"/>
    <path class="st0" d="M614.9,325c-57-47.5-89.9-117.8-89.9-192.1v-32.9H250v32.9c0,74.2-32.9,144.5-90,192.1l-60,50,275,400v-276.2c-28.5-5.8-50-31-50-61.3s28-62.5,62.5-62.5,62.5,28,62.5,62.5-21.5,55.5-50,61.3v276.2l275-400-60.1-50Z"/>
  </g>
  <g>
    <rect class="st0" x="225" y="25" width="325" height="50"/>
    <path class="st0" d="M614.9,325c-57-47.5-89.9-117.8-89.9-192.1v-32.9H250v32.9c0,74.2-32.9,144.5-90,192.1l-60,50,275,400v-276.2c-28.5-5.8-50-31-50-61.3s28-62.5,62.5-62.5,62.5,28,62.5,62.5-21.5,55.5-50,61.3v276.2l275-400-60.1-50Z"/>
  </g>
</svg>