<?xml version="1.0" encoding="UTF-8"?>
<svg id="Capa_1" xmlns="http://www.w3.org/2000/svg" version="1.1" viewBox="0 0 800 800">
  <!-- Generator: Adobe Illustrator 30.2.1, SVG Export Plug-In . SVG Version: 2.1.1 Build 1)  -->
  <defs>
    <style>
      .st0 {
        fill: #fff;
      }
    </style>
  </defs>
  <g id="bb9f4e02-7318-4dbb-9960-e0435cf0cad7">
    <path class="st0" d="M77.8,528.2c-46.6,63.4-33.1,152.5,30.3,199.2,53.3,39.3,126.7,36.6,177.1-6.5-101.2-17.4-182.6-93-207.3-192.7Z"/>
    <path class="st0" d="M170.7,322.9c-79,87.4-72.2,222.3,15.2,301.3,79.9,72.2,201.1,73.6,282.6,3.1-163.5-8.2-293.2-140.8-297.8-304.4Z"/>
    <path class="st0" d="M484,44.4c148.7,0,269.3,120.6,269.3,269.3,0,148.7-120.6,269.3-269.3,269.3-148.5,0-269-120.2-269.3-268.7-.4-148.7,119.9-269.6,268.7-270,.2,0,.4,0,.7,0"/>
  </g>
</svg>